<svg width="14" height="14" viewBox="0 0 14 14" fill="none" xmlns="http://www.w3.org/2000/svg">
<path d="M4.08301 11.667H9.91634" stroke="white" stroke-width="1.16667" stroke-linecap="round" stroke-linejoin="round"/>
<path d="M5.83301 11.6663C9.04134 10.208 6.29967 7.93301 7.58301 5.83301" stroke="white" stroke-width="1.16667" stroke-linecap="round" stroke-linejoin="round"/>
<path d="M5.54134 5.48286C6.18301 5.94953 6.59134 6.76619 6.88301 7.64119C5.71634 7.87453 4.84134 7.87453 4.08301 7.46619C3.38301 7.11619 2.74134 6.35786 2.33301 5.01619C3.96634 4.72453 4.89967 5.01619 5.54134 5.48286Z" stroke="white" stroke-width="1.16667" stroke-linecap="round" stroke-linejoin="round"/>
<path d="M8.22487 3.49967C7.78013 4.19475 7.55642 5.00826 7.58321 5.83301C8.69154 5.77467 9.50821 5.48301 10.0915 5.01634C10.6749 4.43301 11.0249 3.67467 11.0832 2.33301C9.50821 2.39134 8.74987 2.91634 8.22487 3.49967Z" stroke="white" stroke-width="1.16667" stroke-linecap="round" stroke-linejoin="round"/>
</svg>
