<svg width="8" height="6" viewBox="0 0 8 6" fill="none" xmlns="http://www.w3.org/2000/svg">
<path d="M4.15627 0.156153C4.25628 0.0561682 4.39191 0 4.53333 0C4.67475 0 4.81038 0.0561682 4.9104 0.156153L7.3104 2.55615C7.41038 2.65617 7.46655 2.7918 7.46655 2.93322C7.46655 3.07464 7.41038 3.21027 7.3104 3.31029L4.9104 5.71029C4.80981 5.80744 4.67509 5.86119 4.53525 5.85998C4.39541 5.85876 4.26165 5.80267 4.16276 5.70379C4.06388 5.60491 4.00779 5.47114 4.00657 5.3313C4.00536 5.19146 4.05912 5.05674 4.15627 4.95615L5.6 3.46655H0.533333C0.391885 3.46655 0.256229 3.41036 0.15621 3.31034C0.0561903 3.21032 0 3.07467 0 2.93322C0 2.79177 0.0561903 2.65612 0.15621 2.5561C0.256229 2.45608 0.391885 2.39989 0.533333 2.39989H5.6L4.15627 0.910286C4.05628 0.810271 4.00011 0.67464 4.00011 0.533219C4.00011 0.391799 4.05628 0.256168 4.15627 0.156153Z" fill="#333333"/>
</svg>
