<svg width="14" height="14" viewBox="0 0 14 14" fill="none" xmlns="http://www.w3.org/2000/svg">
<g clip-path="url(#clip0_2071_14114)">
<path d="M4.08333 9.50846C5.36667 9.50846 6.41667 8.44096 6.41667 7.14596C6.41667 6.4693 6.08417 5.82763 5.41917 5.28513C4.75417 4.74263 4.2525 3.93763 4.08333 3.0918C3.91417 3.93763 3.41833 4.74846 2.7475 5.28513C2.07667 5.8218 1.75 6.47513 1.75 7.14596C1.75 8.44096 2.8 9.50846 4.08333 9.50846Z" stroke="white" stroke-width="1.16667" stroke-linecap="round" stroke-linejoin="round"/>
<path d="M7.3269 3.85005C7.72809 3.20904 8.01249 2.50199 8.1669 1.76172C8.45857 3.22005 9.33357 4.62005 10.5002 5.55339C11.6669 6.48672 12.2502 7.59505 12.2502 8.76172C12.2536 9.56806 12.0174 10.3572 11.5717 11.0292C11.126 11.7011 10.4908 12.2256 9.74664 12.5362C9.00249 12.8467 8.1829 12.9293 7.39175 12.7735C6.60061 12.6176 5.87355 12.2304 5.30273 11.6609" stroke="white" stroke-width="1.16667" stroke-linecap="round" stroke-linejoin="round"/>
</g>
<defs>
<clipPath id="clip0_2071_14114">
<rect width="14" height="14" fill="white"/>
</clipPath>
</defs>
</svg>
