<svg width="14" height="14" viewBox="0 0 14 14" fill="none" xmlns="http://www.w3.org/2000/svg">
<path d="M5.8331 5.83337V5.95004C6.21567 6.09716 6.53446 6.37389 6.73388 6.73199C6.9333 7.09008 7.0007 7.50681 6.92432 7.90951C6.84795 8.31221 6.63265 8.67532 6.31596 8.93554C5.99928 9.19575 5.6013 9.33654 5.19144 9.33337H2.91644C2.51147 9.3233 2.12254 9.17304 1.81598 8.90823C1.50943 8.64342 1.30424 8.28046 1.23541 7.88125C1.16658 7.48205 1.23838 7.07133 1.43856 6.71915C1.63873 6.36697 1.95489 6.09515 2.3331 5.95004V5.83337C2.3331 5.36925 2.51748 4.92413 2.84567 4.59594C3.17386 4.26775 3.61898 4.08337 4.0831 4.08337C4.54723 4.08337 4.99235 4.26775 5.32054 4.59594C5.64873 4.92413 5.8331 5.36925 5.8331 5.83337Z" stroke="white" stroke-width="1.16667" stroke-linecap="round" stroke-linejoin="round"/>
<path d="M4.08301 9.33337V12.8334" stroke="white" stroke-width="1.16667" stroke-linecap="round" stroke-linejoin="round"/>
<path d="M7.58301 11.0834V12.8334" stroke="white" stroke-width="1.16667" stroke-linecap="round" stroke-linejoin="round"/>
<path d="M6.99993 11.0833H11.8416C11.9558 11.0817 12.067 11.0467 12.1614 10.9825C12.2558 10.9182 12.3293 10.8277 12.3728 10.7222C12.4163 10.6166 12.4278 10.5006 12.406 10.3885C12.3841 10.2764 12.3299 10.1732 12.2499 10.0917L10.4999 8.16667H10.6749C10.7891 8.16506 10.9003 8.12999 10.9947 8.06578C11.0892 8.00158 11.1627 7.91108 11.2061 7.80549C11.2496 7.69991 11.2611 7.58389 11.2393 7.47181C11.2175 7.35974 11.1632 7.25653 11.0833 7.175L9.33327 5.25H9.44994C9.56908 5.26075 9.68865 5.2346 9.79244 5.17511C9.89623 5.11562 9.97922 5.02565 10.0302 4.91741C10.0811 4.80916 10.0975 4.68787 10.0772 4.56998C10.0569 4.45209 10.0008 4.34329 9.9166 4.25833L7.58327 1.75L6.7666 2.625" stroke="white" stroke-width="1.16667" stroke-linecap="round" stroke-linejoin="round"/>
</svg>
